<?xml version="1.0" encoding="UTF-8" standalone="no"?>
<svg width="100px" height="100px" viewBox="0 0 100 100" version="1.1" xmlns="http://www.w3.org/2000/svg" xmlns:xlink="http://www.w3.org/1999/xlink" xmlns:sketch="http://www.bohemiancoding.com/sketch/ns">
    <!-- Generator: Sketch 3.3.2 (12043) - http://www.bohemiancoding.com/sketch -->
    <title>Artboard 5 Copy 2</title>
    <desc>Created with Sketch.</desc>
    <defs></defs>
    <g id="Page-1" stroke="none" stroke-width="1" fill="none" fill-rule="evenodd" sketch:type="MSPage">
        <g id="Artboard-5-Copy-2" sketch:type="MSArtboardGroup">
            <g id="git" sketch:type="MSLayerGroup" transform="translate(-9.000000, 5.000000)">
                <path d="M117.761004,44.1963104 L117.848121,43.7637073 C108.145848,41.8227583 98.1893672,41.8031574 92.1660664,42.053357 C93.1554687,38.4862262 93.4532344,34.3815698 93.4532344,29.8044169 C93.4532344,23.2397339 90.9883711,17.9880798 86.9865117,13.9918049 C87.6857539,11.7333215 88.6198437,6.71756984 86.0535742,0.29631929 C86.0535742,0.29631929 81.5262461,-1.14192461 71.2862891,5.71538803 C67.27475,4.71228381 63.0055469,4.21695787 58.7303516,4.21695787 C54.0262539,4.21695787 49.2728359,4.81628381 44.8397695,6.03292239 C34.2725469,-1.17997339 29.6078594,0.297472284 29.6078594,0.297472284 C26.5629062,7.91645233 28.4456055,13.5575876 29.0173984,14.9587051 C25.4384492,18.8233082 23.2536055,23.7569667 23.2536055,29.8055698 C23.2536055,34.3718847 23.773082,38.4682395 25.0422734,42.0286829 C18.9675781,41.8075388 9.37454687,41.8926297 0.0184375,43.7643991 L0.104402344,44.1970022 C9.51674609,42.3137029 19.1703906,42.2482129 25.20775,42.4769667 C25.4873086,43.2139601 25.7989023,43.928816 26.148293,44.6199202 C20.1777695,44.8122395 9.98252344,45.5736763 0.212261719,48.3316364 L0.332566406,48.7552461 C10.1802656,45.9772239 20.4635508,45.2346962 26.3762266,45.0539069 C29.9436523,51.7073703 36.9770977,56.0043459 49.4892461,57.3540399 C47.7132539,58.5480798 45.9017695,60.5778093 45.1674961,64.0123459 C42.7475742,65.170643 35.086332,67.9977827 30.4900937,60.0875565 C30.4900937,60.0875565 27.9171406,55.3805765 22.9922539,55.0120798 C22.9922539,55.0120798 18.2148672,54.93898 22.6624531,57.9909534 C22.6624531,57.9909534 25.8590547,59.4979157 28.0646406,65.1618803 C28.0646406,65.1618803 30.9418125,74.8221197 44.8259414,71.7228736 L44.8259414,81.7013392 C44.8259414,81.7013392 44.5323242,85.2308825 41.2983867,86.4067051 C41.2983867,86.4067051 39.3875703,87.7303415 41.4463477,88.4647982 C41.4463477,88.4647982 50.4106602,89.2001774 50.4106602,81.8486918 L50.4106602,70.9674324 C50.4106602,70.9674324 50.0552773,66.6522395 52.1737461,65.1524257 L52.1737461,83.024745 C52.1737461,83.024745 52.0273984,87.288745 49.8227344,88.9063947 C49.8227344,88.9063947 48.3523437,91.5525144 51.5858203,90.8182882 C51.5858203,90.8182882 57.7580039,89.9360177 58.0523125,82.7309623 L58.1919766,64.6439557 L59.6755039,64.6439557 L59.8165508,82.7309623 C60.1099375,89.9360177 66.282582,90.8182882 66.282582,90.8182882 C69.5151367,91.5525144 68.045668,88.9063947 68.045668,88.9063947 C65.8414648,87.288745 65.6948867,83.024745 65.6948867,83.024745 L65.6948867,65.3064656 C67.8124336,66.9561685 67.4579727,70.9672018 67.4579727,70.9672018 L67.4579727,81.8484612 C67.4579727,89.200408 76.4222852,88.464337 76.4222852,88.464337 C78.4789883,87.7301109 76.5700156,86.4064745 76.5700156,86.4064745 C73.3363086,85.2304213 73.0422305,81.7011086 73.0422305,81.7011086 L73.0422305,67.4376585 C73.0422305,61.8758492 70.7015898,58.9301818 68.4125742,57.3754856 C81.7564844,56.051388 88.1600586,51.7401153 91.1105195,45.0419157 C96.9554375,45.202643 107.474031,45.9151929 117.535375,48.7550155 L117.654988,48.3314058 C107.651262,45.5079557 97.2020391,44.7774191 91.2981211,44.6056231 C91.5776797,43.9290466 91.8217461,43.2252594 92.0383867,42.5014102 C98.031957,42.252133 108.035453,42.2553614 117.774371,44.202306 L117.761004,44.1963104 L117.761004,44.1963104 Z M28.4308555,60.2339867 C27.9037734,60.2339867 27.4751016,59.9388204 27.4751016,59.5730909 C27.4751016,59.2071308 27.9037734,58.9103503 28.4308555,58.9103503 C28.958168,58.9103503 29.3863789,59.2062084 29.3866094,59.5735521 C29.3861484,59.939051 28.9579375,60.2339867 28.4308555,60.2339867 L28.4308555,60.2339867 Z M29.3866094,59.5740133 L29.3866094,59.5735521 L29.3866094,59.5730909 L29.3866094,59.5740133 L29.3866094,59.5740133 Z M29.9003242,62.4394324 C29.3732422,62.4394324 28.9445703,62.1442661 28.9445703,61.7785366 C28.9445703,61.4125765 29.3732422,61.115796 29.9003242,61.115796 C30.4276367,61.115796 30.8558477,61.4116541 30.8560781,61.7789978 C30.8558477,62.1444967 30.4276367,62.4394324 29.9003242,62.4394324 L29.9003242,62.4394324 Z M30.8563086,61.779459 L30.8563086,61.7789978 L30.8563086,61.7785366 L30.8563086,61.779459 L30.8563086,61.779459 Z M25.123168,56.190439 C25.1229375,56.5559379 24.6947266,56.8511042 24.1676445,56.8511042 C23.6405625,56.8511042 23.2118906,56.5557073 23.2118906,56.1899778 C23.2118906,55.8237871 23.6405625,55.5274678 24.1676445,55.5274678 C24.6947266,55.5274678 25.1229375,55.8230953 25.123168,56.190439 L25.123168,56.190439 Z M32.4714336,63.8382439 L32.4714336,63.8377827 L32.4714336,63.8387051 L32.4714336,63.8382439 L32.4714336,63.8382439 Z M25.123168,56.190439 L25.123168,56.1899778 L25.123168,56.1909002 C25.1233984,56.1906696 25.123168,56.1906696 25.123168,56.190439 L25.123168,56.190439 Z M27.7698711,57.6614279 L27.7698711,57.6609667 L27.7698711,57.6602749 L27.7698711,57.6614279 L27.7698711,57.6614279 Z M26.8141172,58.3211707 C26.2870352,58.3211707 25.8583633,58.026235 25.8583633,57.6602749 C25.8583633,57.2943149 26.2870352,56.997765 26.8141172,56.997765 C27.3411992,56.997765 27.7694102,57.2933925 27.7696406,57.6609667 C27.7691797,58.0264656 27.3411992,58.3211707 26.8141172,58.3211707 L26.8141172,58.3211707 Z M34.6788633,65.6014013 C34.6786328,65.9669002 34.2504219,66.2618359 33.7231094,66.2618359 C33.1960273,66.2618359 32.7673555,65.9666696 32.7673555,65.6009401 C32.7673555,65.23498 33.1960273,64.9381996 33.7231094,64.9381996 C34.2501914,64.9381996 34.6784023,65.2340576 34.6788633,65.6014013 L34.6788633,65.6014013 Z M32.4714336,63.8382439 C32.4712031,64.2037428 32.0429922,64.4986785 31.5156797,64.4986785 C30.9885977,64.4986785 30.5599258,64.2035122 30.5599258,63.8377827 C30.5599258,63.4718226 30.9885977,63.1750421 31.5156797,63.1750421 C32.0427617,63.1750421 32.4709727,63.4709002 32.4714336,63.8382439 L32.4714336,63.8382439 Z M40.8372187,66.7790687 C40.8369883,67.1445676 40.4087773,67.4395033 39.8814648,67.4395033 C39.3543828,67.4395033 38.9257109,67.144337 38.9257109,66.7786075 C38.9257109,66.4124169 39.3543828,66.1160976 39.8814648,66.1160976 C40.4087773,66.1160976 40.8367578,66.4117251 40.8372187,66.7790687 L40.8372187,66.7790687 Z M43.9538477,66.2680621 C43.9536172,66.633561 43.5254062,66.9284967 42.9980937,66.9284967 C42.4710117,66.9284967 42.0423398,66.6333304 42.0423398,66.2676009 C42.0423398,65.9016408 42.4710117,65.6048603 42.9980937,65.6048603 C43.5251758,65.6048603 43.9533867,65.9007184 43.9538477,66.2680621 L43.9538477,66.2680621 Z M43.9538477,66.2685233 L43.9538477,66.2680621 L43.9538477,66.2676009 L43.9538477,66.2685233 L43.9538477,66.2685233 Z M40.8372187,66.7790687 L40.8372187,66.7786075 L40.8372187,66.7795299 L40.8372187,66.7790687 L40.8372187,66.7790687 Z M34.6788633,65.6014013 L34.6788633,65.6009401 L34.6788633,65.6018625 L34.6788633,65.6014013 L34.6788633,65.6014013 Z M37.7641484,66.7790687 L37.7641484,66.7786075 L37.7641484,66.7795299 C37.7643789,66.7792993 37.7641484,66.7792993 37.7641484,66.7790687 L37.7641484,66.7790687 Z M37.7641484,66.7790687 C37.763918,67.1445676 37.335707,67.4395033 36.8083945,67.4395033 C36.2813125,67.4395033 35.8526406,67.144337 35.8526406,66.7786075 C35.8526406,66.4124169 36.2813125,66.1160976 36.8083945,66.1160976 C37.335707,66.1160976 37.763918,66.4117251 37.7641484,66.7790687 L37.7641484,66.7790687 Z M84.9579258,38.6372683 C84.9579258,54.4639468 73.1666836,54.8928603 58.6227227,54.8928603 C44.0762266,54.8928603 32.2863672,52.7012506 32.2863672,38.6372683 C32.2863672,35.2700665 33.9438984,32.1436098 36.782582,29.5489135 C41.5175625,25.2247273 49.5309609,27.5143415 58.6224922,27.5143415 C67.6732305,27.5131885 75.6594336,25.2000532 80.4010977,29.4947228 L80.4027109,29.4961064 C83.2766562,32.1014102 84.9579258,35.2476984 84.9579258,38.6372683 L84.9579258,38.6372683 Z" id="Shape" fill="#000000" sketch:type="MSShapeGroup"></path>
                <path d="M58.6222617,27.5145721 C49.5307305,27.5145721 41.517332,25.2249579 36.7823516,29.5491441 C33.9438984,32.1438404 32.2861367,35.2702971 32.2861367,38.6374989 C32.2861367,52.7014812 44.0762266,54.8930909 58.6224922,54.8930909 C73.1664531,54.8930909 84.9576953,54.4641774 84.9576953,38.6374989 C84.9579258,35.2476984 83.2766563,32.1014102 80.4024805,29.496337 C75.6592031,25.2002838 67.673,27.5134191 58.6222617,27.5145721 Z" id="Shape" stroke="#000000" fill="#000000" sketch:type="MSShapeGroup"></path>
                <path d="M25.1233984,56.1899778 C25.1233984,56.5557073 24.6951875,56.8511042 24.1676445,56.8511042 C23.6405625,56.8511042 23.2118906,56.5557073 23.2118906,56.1899778 C23.2118906,55.8237871 23.6405625,55.5274678 24.1676445,55.5274678 C24.6951875,55.5274678 25.1233984,55.8233259 25.1233984,56.1909002 L25.1233984,56.1899778 L25.1233984,56.1899778 Z M27.7698711,57.6602749 C27.7698711,58.026235 27.3414297,58.3211707 26.8141172,58.3211707 C26.2870352,58.3211707 25.8583633,58.026235 25.8583633,57.6602749 C25.8583633,57.2943149 26.2870352,56.997765 26.8141172,56.997765 C27.3414297,56.997765 27.7698711,57.2936231 27.7698711,57.6614279 L27.7698711,57.6602749 L27.7698711,57.6602749 Z M29.3866094,59.5730909 C29.3866094,59.9388204 28.958168,60.2339867 28.4308555,60.2339867 C27.9037734,60.2339867 27.4751016,59.9388204 27.4751016,59.5730909 C27.4751016,59.2071308 27.9037734,58.9103503 28.4308555,58.9103503 C28.9583984,58.9103503 29.3866094,59.206439 29.3866094,59.5740133 L29.3866094,59.5730909 L29.3866094,59.5730909 Z M30.8563086,61.7785366 C30.8563086,62.1442661 30.4278672,62.4394324 29.9005547,62.4394324 C29.3734727,62.4394324 28.9448008,62.1442661 28.9448008,61.7785366 C28.9448008,61.4125765 29.3734727,61.115796 29.9005547,61.115796 C30.4280977,61.115796 30.8563086,61.4118847 30.8563086,61.779459 L30.8563086,61.7785366 L30.8563086,61.7785366 Z M32.4714336,63.8377827 C32.4714336,64.2035122 32.0429922,64.4986785 31.5156797,64.4986785 C30.9885977,64.4986785 30.5599258,64.2035122 30.5599258,63.8377827 C30.5599258,63.4718226 30.9885977,63.1750421 31.5156797,63.1750421 C32.0432227,63.1750421 32.4714336,63.4711308 32.4714336,63.8387051 L32.4714336,63.8377827 L32.4714336,63.8377827 Z M34.6788633,65.6009401 C34.6788633,65.9666696 34.2504219,66.2618359 33.7231094,66.2618359 C33.1960273,66.2618359 32.7673555,65.9666696 32.7673555,65.6009401 C32.7673555,65.23498 33.1960273,64.9381996 33.7231094,64.9381996 C34.2506523,64.9381996 34.6788633,65.2340576 34.6788633,65.6018625 L34.6788633,65.6009401 L34.6788633,65.6009401 Z M37.7643789,66.7786075 C37.7643789,67.144337 37.3359375,67.4395033 36.808625,67.4395033 C36.281543,67.4395033 35.8528711,67.144337 35.8528711,66.7786075 C35.8528711,66.4124169 36.281543,66.1160976 36.808625,66.1160976 C37.336168,66.1160976 37.7643789,66.4119557 37.7643789,66.7795299 L37.7643789,66.7786075 L37.7643789,66.7786075 Z M40.8372187,66.7786075 C40.8372187,67.144337 40.4087773,67.4395033 39.8814648,67.4395033 C39.3543828,67.4395033 38.9257109,67.144337 38.9257109,66.7786075 C38.9257109,66.4124169 39.3543828,66.1160976 39.8814648,66.1160976 C40.4090078,66.1160976 40.8372187,66.4119557 40.8372187,66.7795299 L40.8372187,66.7786075 L40.8372187,66.7786075 Z M43.9538477,66.2676009 C43.9538477,66.6333304 43.5254062,66.9284967 42.9980937,66.9284967 C42.4710117,66.9284967 42.0423398,66.6333304 42.0423398,66.2676009 C42.0423398,65.9016408 42.4710117,65.6048603 42.9980937,65.6048603 C43.5256367,65.6048603 43.9538477,65.900949 43.9538477,66.2685233 L43.9538477,66.2676009 L43.9538477,66.2676009 Z" id="octo_1_" opacity="0.3" fill="#333333" sketch:type="MSShapeGroup"></path>
                <path d="M21.6138203,58.1526031 L20.6592188,61.4806031 C20.6592188,61.4806031 20.410082,62.6834058 21.5432969,62.8969401 C22.7265234,62.8738803 22.6285742,61.7670067 22.5467578,61.4075033 L21.6138203,58.1526031 L21.6138203,58.1526031 Z" id="drop" opacity="0.5" fill="#333333" sketch:type="MSShapeGroup"></path>
            </g>
        </g>
    </g>
</svg>