<?xml version="1.0" encoding="UTF-8" standalone="no"?>
<svg width="100px" height="100px" viewBox="0 0 100 100" version="1.1" xmlns="http://www.w3.org/2000/svg" xmlns:xlink="http://www.w3.org/1999/xlink" xmlns:sketch="http://www.bohemiancoding.com/sketch/ns">
    <!-- Generator: Sketch 3.3.2 (12043) - http://www.bohemiancoding.com/sketch -->
    <title>Artboard 5</title>
    <desc>Created with Sketch.</desc>
    <defs></defs>
    <g id="Page-1" stroke="none" stroke-width="1" fill="none" fill-rule="evenodd" sketch:type="MSPage">
        <g id="Artboard-5" sketch:type="MSArtboardGroup" fill="#000000">
            <path d="M1.41144766e-14,79.548001 C10.7333095,80.8411708 20.8200342,77.9315387 30.2601739,70.8191047 C25.8633965,70.9484216 21.983887,69.6552518 18.6216455,66.9395952 C15.2594039,64.2239386 12.7377228,60.73238 11.056602,56.4649196 C12.2204548,56.7235536 13.6429416,56.7882121 15.3240624,56.6588951 C17.5224511,56.5295781 19.1389134,56.3356026 20.1734492,56.0769687 C13.5782831,53.87858 8.98753027,50.322363 6.40119063,45.4083176 C4.84938684,42.0460761 4.07348494,38.619176 4.07348494,35.1276175 C7.82367743,37.0673723 10.8626265,37.9725911 13.1903322,37.8432742 C7.88833592,33.3171798 4.91404533,28.4677929 4.26746042,23.2951136 C3.87950947,19.1569702 4.72006986,14.6955343 6.78914157,9.91080597 C14.2895265,18.1870928 22.1778625,24.135674 30.4541493,27.7565495 C36.6613645,30.3428892 42.8039212,31.636059 48.8818193,31.636059 C48.1059174,25.4288438 48.9464778,20.1915061 51.4035005,15.9240456 C54.3777911,11.2686343 58.6452515,8.1650267 64.2058817,6.61322292 C67.8267572,5.70800404 71.3183158,5.80497522 74.6805573,6.90413647 C78.0427988,8.00329771 80.8877725,9.84604815 83.2154781,12.4323878 C87.2243046,12.0444369 91.621082,10.4279746 96.4058103,7.58300096 C94.4660556,13.2729482 91.4271065,17.1524577 87.2889631,19.2215294 C91.4271065,18.5749445 95.435933,17.4110916 99.3154424,15.7299709 C98.6688575,17.0231407 97.4403462,18.7689199 95.6299084,20.9673086 C93.8194707,23.1656973 91.5564235,25.0407936 88.8407669,26.5925974 C88.9700839,27.2391823 89.0347423,27.8211087 89.0347423,28.3383766 C89.2933763,35.5801276 87.8708895,43.2744881 84.7672819,51.421458 C79.4652857,64.7411072 71.4476327,74.7631733 60.7143232,81.4876564 C50.1103307,87.4362376 37.4372664,89.6992848 22.6951304,88.2767979 C13.3843077,87.2422621 5.81926421,84.33263 0,79.5479016 L1.41144766e-14,79.548001 Z" id="Shape" sketch:type="MSShapeGroup"></path>
        </g>
    </g>
</svg>